<svg width="24" height="24" viewBox="0 0 24 24" fill="none" xmlns="http://www.w3.org/2000/svg">
<path d="M22.8844 12C23.5005 12 24.0054 12.5006 23.9482 13.114C23.7597 15.1353 23.0607 17.0824 21.9088 18.7687C20.5465 20.763 18.614 22.2999 16.3642 23.1783C14.1143 24.0567 11.6517 24.2357 9.29847 23.6919C6.94521 23.1482 4.81079 21.907 3.17432 20.1306C1.53786 18.3543 0.4755 16.1255 0.126175 13.7356C-0.22315 11.3457 0.156813 8.90607 1.21638 6.73563C2.27595 4.5652 3.9658 2.765 6.06498 1.57045C7.83991 0.56041 9.83762 0.0231153 11.8676 0.000722032C12.4837 -0.00607445 12.9412 0.538056 12.8908 1.15212C12.8404 1.76619 12.3006 2.21642 11.6848 2.2363C10.1038 2.28734 8.55293 2.72185 7.16851 3.50967C5.45964 4.48211 4.08399 5.94759 3.22144 7.71446C2.35888 9.48134 2.04956 11.4674 2.33394 13.4129C2.61831 15.3584 3.48314 17.1728 4.81533 18.6189C6.14752 20.0649 7.88507 21.0754 9.80078 21.518C11.7165 21.9606 13.7212 21.8149 15.5527 21.0998C17.3843 20.3848 18.9574 19.1337 20.0664 17.5101C20.9649 16.1948 21.5249 14.6847 21.7051 13.1132C21.7754 12.5011 22.2683 12 22.8844 12Z" fill="#007CEF"/>
</svg>
